<svg width="20" height="20" viewBox="0 0 20 20" fill="none" xmlns="http://www.w3.org/2000/svg">
<path d="M19.1666 4.26344C18.4848 4.5625 17.7584 4.76073 17.001 4.85698C17.7801 4.39177 18.3748 3.66073 18.6544 2.77958C17.9279 3.21271 17.1259 3.51865 16.2711 3.68938C15.5813 2.9549 14.5981 2.5 13.5256 2.5C11.4448 2.5 9.76961 4.18896 9.76961 6.25948C9.76961 6.5574 9.79481 6.84385 9.85669 7.11656C6.732 6.96417 3.96711 5.46656 2.10971 3.18521C1.78544 3.74781 1.59523 4.39177 1.59523 5.085C1.59523 6.38667 2.26554 7.54052 3.26471 8.20854C2.66086 8.19708 2.06846 8.02177 1.56659 7.74563C1.56659 7.75708 1.56659 7.77198 1.56659 7.78687C1.56659 9.61333 2.8694 11.1304 4.57783 11.4799C4.2719 11.5635 3.93846 11.6036 3.59242 11.6036C3.35179 11.6036 3.10888 11.5899 2.88086 11.5395C3.36784 13.0279 4.74971 14.1222 6.39284 14.1577C5.11409 15.158 3.49044 15.7607 1.73273 15.7607C1.4245 15.7607 1.12888 15.747 0.833252 15.7092C2.49815 16.7828 4.47127 17.3958 6.59908 17.3958C13.5153 17.3958 17.2966 11.6667 17.2966 6.70062C17.2966 6.53448 17.2909 6.37406 17.2828 6.21479C18.0288 5.68542 18.6555 5.02427 19.1666 4.26344Z" fill="black"/>
</svg>
