<svg width="290" height="300" viewBox="0 0 290 300" fill="none" xmlns="http://www.w3.org/2000/svg">
<path d="M236 168C236 225.521 189.357 272 132 272C74.4789 272 28.0002 225.357 28.0002 168C28.0002 110.479 74.6437 64 132 64C189.357 64 236 110.479 236 168Z" fill="white"/>
<path d="M141.188 288C144.868 288 147.954 284.822 146.071 281.661C144.1 278.351 140.69 276 136.851 276C135.283 276 133.658 274.55 133.241 273.039C130.601 263.474 122.028 257 111.851 257C111.501 257 111.15 256.985 110.801 256.965C108.362 256.823 105.888 255.804 104.023 254.226C99.3341 250.259 93.3778 248 86.8508 248C75.7283 248 65.9133 255.112 61.531 265.008C60.2797 267.834 57.5733 269.852 54.7058 271.004C50.278 272.783 46.7587 276.75 45.0259 281.475C43.759 284.93 46.834 288 50.5138 288H141.188Z" fill="url(#paint0_linear)"/>
<path d="M22.8508 236H30.427C31.9818 236 33.476 235.396 34.5945 234.316L60.1071 209.684C61.2257 208.604 62.7198 208 64.2747 208H90.5049C92.0133 208 93.4663 207.432 94.5746 206.409L104.127 197.591C105.235 196.568 106.688 196 108.197 196H162.366C163.957 196 165.483 195.368 166.608 194.243L169.034 191.817C170.741 190.11 173.305 189.592 175.54 190.503L193.935 197.997C196.742 199.141 199.961 198.011 201.438 195.365L211.612 177.137C214.626 171.736 222.851 173.876 222.851 180.061V203C222.851 206.314 220.165 209 216.851 209H213.851" stroke="black" stroke-width="6" stroke-linecap="round" stroke-linejoin="round"/>
<path d="M63.8508 198H80.8508C84.1645 198 86.8508 195.314 86.8508 192V173.145C86.8508 172.388 86.9939 171.639 87.2725 170.935L92 159" stroke="black" stroke-width="6.63277" stroke-linecap="round" stroke-linejoin="round"/>
<path d="M154.851 113H160.851C164.165 113 166.851 115.686 166.851 119V147.515C166.851 149.106 166.219 150.632 165.093 151.757L158.608 158.243C157.483 159.368 155.957 160 154.366 160H97.3361C95.7448 160 94.2187 159.368 93.0935 158.243L90.0935 155.243C86.3137 151.463 79.8508 154.14 79.8508 159.485V162" stroke="black" stroke-width="6" stroke-linecap="round" stroke-linejoin="round"/>
<path d="M167.851 119L175.063 110.986C176.201 109.722 177.822 109 179.523 109H206.022C207.585 109 208.851 110.266 208.851 111.828V111.828C208.851 112.579 208.553 113.298 208.022 113.828L194.608 127.243C193.483 128.368 191.957 129 190.366 129H182.851" stroke="black" stroke-width="6" stroke-linecap="round" stroke-linejoin="round"/>
<path d="M180.851 127L192.851 139L203.093 149.243C204.219 150.368 204.851 151.894 204.851 153.485V169.515C204.851 171.106 204.219 172.632 203.093 173.757L195.851 181" stroke="black" stroke-width="6" stroke-linecap="round" stroke-linejoin="round"/>
<path d="M170 115L154.757 99.7574C153.632 98.6321 152.106 98 150.515 98H124.485C122.894 98 121.368 97.3679 120.243 96.2426L109 85" stroke="black" stroke-width="6" stroke-linecap="round" stroke-linejoin="round"/>
<path d="M128 97L128 83L128 69" stroke="black" stroke-width="6" stroke-linecap="round" stroke-linejoin="round"/>
<path d="M118 76L128 86" stroke="black" stroke-width="6" stroke-linecap="round" stroke-linejoin="round"/>
<path d="M154.851 81L165.851 92" stroke="black" stroke-width="6" stroke-linecap="round" stroke-linejoin="round"/>
<path d="M165.851 80L170.851 85" stroke="black" stroke-width="6" stroke-linecap="round" stroke-linejoin="round"/>
<path d="M170.851 103L167.677 100.223C165.065 97.9377 164.932 93.9193 167.386 91.4651L176.851 82" stroke="black" stroke-width="6" stroke-linecap="round" stroke-linejoin="round"/>
<path fill-rule="evenodd" clip-rule="evenodd" d="M30.8508 86C32.1388 86 33.3744 86.1734 34.5412 86.4988C38.7707 77.9955 47.5623 72.1235 57.8508 72C70.8333 72 81.661 81.5206 83.5567 94.067C83.9835 94.0227 84.4153 94 84.8508 94C91.2397 94 95.8508 98.8889 95.8508 105C95.8508 111.111 91.2397 116 84.8508 116C82.4557 116 80.1699 115.313 78.2481 114.132C73.5067 120.129 66.1679 124 57.8508 124C49.6548 124 42.3175 120.205 37.5444 114.251C35.5807 115.367 33.3113 116 30.8508 116C22.8377 116 15.8508 109.289 15.8508 101C15.8508 92.7105 22.8377 86 30.8508 86Z" fill="url(#paint1_linear)"/>
<path d="M83.8508 46C83.8508 49.3846 86.6201 52 89.8508 52C93.2354 52 95.8508 49.2308 95.8508 46C95.8508 42.6154 93.0816 40 89.8508 40C86.4662 40 83.8508 42.7692 83.8508 46Z" fill="url(#paint2_linear)"/>
<path d="M245.851 12V51" stroke="black" stroke-width="6" stroke-linecap="round" stroke-linejoin="round"/>
<path d="M228.851 22L262.851 42" stroke="black" stroke-width="6" stroke-linecap="round" stroke-linejoin="round"/>
<path d="M228.851 42L262.851 22" stroke="black" stroke-width="6" stroke-linecap="round" stroke-linejoin="round"/>
<defs>
<linearGradient id="paint0_linear" x1="43.8508" y1="268" x2="147.851" y2="268" gradientUnits="userSpaceOnUse">
<stop stop-color="#D91E9D"/>
<stop offset="1" stop-color="#8010A7"/>
</linearGradient>
<linearGradient id="paint1_linear" x1="15.8508" y1="98" x2="95.8508" y2="98" gradientUnits="userSpaceOnUse">
<stop stop-color="#D91E9D"/>
<stop offset="1" stop-color="#8010A7"/>
</linearGradient>
<linearGradient id="paint2_linear" x1="83.8508" y1="46" x2="95.8508" y2="46" gradientUnits="userSpaceOnUse">
<stop stop-color="#D91E9D"/>
<stop offset="1" stop-color="#8010A7"/>
</linearGradient>
</defs>
</svg>
