<svg width="377" height="156" viewBox="0 0 377 156" fill="none" xmlns="http://www.w3.org/2000/svg">
<path d="M77 76H17C13.6863 76 11 78.6863 11 82V146C11 149.314 13.6863 152 17 152H77C80.3137 152 83 149.314 83 146V82C83 78.6863 80.3137 76 77 76Z" fill="url(#paint0_linear)"/>
<mask id="mask0" mask-type="alpha" maskUnits="userSpaceOnUse" x="11" y="76" width="72" height="76">
<path d="M77 76H17C13.6863 76 11 78.6863 11 82V146C11 149.314 13.6863 152 17 152H77C80.3137 152 83 149.314 83 146V82C83 78.6863 80.3137 76 77 76Z" fill="#C4C4C4"/>
</mask>
<g mask="url(#mask0)">
<path d="M47 152V76" stroke="white" stroke-width="6.63277" stroke-linecap="round" stroke-linejoin="round"/>
<path d="M11 112L83 112" stroke="white" stroke-width="6" stroke-linecap="round" stroke-linejoin="round"/>
</g>
<path d="M27 92L42.3099 76.6901C44.9002 74.0998 49.0998 74.0998 51.6901 76.6901L67 92" stroke="black" stroke-width="6" stroke-linecap="round" stroke-linejoin="round"/>
<path d="M31 51C24.7781 49.6484 20.7556 54.0866 22 60C23.4222 65.7444 29.4558 71.8173 35.5 73L36.1786 73.177C41.0526 74.4485 45.5093 70.037 44.2876 65.1504L44 64C42.9334 58.0866 37.222 52.3516 31 51Z" stroke="black" stroke-width="6" stroke-linecap="round" stroke-linejoin="round"/>
<path d="M63 51C69.2219 49.6484 73.2444 54.0866 72 60C70.5778 65.7444 64.5442 71.8173 58.5 73L57.8214 73.177C52.9474 74.4485 48.4907 70.037 49.7124 65.1504L50 64C51.0666 58.0866 56.778 52.3516 63 51Z" stroke="black" stroke-width="6" stroke-linecap="round" stroke-linejoin="round"/>
<path d="M232.923 122C230.691 122 229.312 119.565 230.46 117.651L243.291 96.2671C244.417 94.3892 243.065 92 240.875 92C238.674 92 237.323 89.5908 238.47 87.7133L246.851 74L251.606 65.4409C253.892 61.326 259.81 61.326 262.096 65.4409L266.851 74L275.231 87.7133C276.379 89.5908 275.027 92 272.827 92C270.637 92 269.284 94.3892 270.411 96.2671L283.241 117.651C284.39 119.565 283.011 122 280.779 122C278.578 122 277.196 124.373 278.28 126.287L287.775 143.042C290.041 147.042 287.152 152 282.554 152H256.851H231.147C226.55 152 223.661 147.042 225.927 143.042L235.421 126.287C236.506 124.373 235.123 122 232.923 122Z" fill="white"/>
<path d="M203.815 127.393C204.711 125.9 203.635 124 201.893 124V124C200.134 124 199.061 122.064 199.993 120.572L207.851 108L211.621 101.297C213.915 97.2189 219.786 97.2189 222.08 101.297L225.851 108L233.708 120.572C234.641 122.064 233.568 124 231.808 124V124C230.067 124 228.991 125.9 229.887 127.393L237.399 139.913C239.798 143.912 236.917 149 232.254 149H216.851H201.448C196.784 149 193.904 143.912 196.303 139.913L203.815 127.393Z" stroke="black" stroke-width="6" stroke-linecap="round" stroke-linejoin="round"/>
<path d="M298.671 120.602C300.09 118.102 298.284 115 295.409 115C292.508 115 290.705 111.848 292.176 109.347L308.738 81.1924C308.813 81.0645 308.874 80.929 308.921 80.7882C309.379 79.4165 308.358 78 306.912 78H304.052C300.844 78 298.832 74.5334 300.424 71.7473L312.851 50L314.811 47.06C316.538 44.4697 314.681 41 311.568 41C308.575 41 306.698 37.7668 308.183 35.1682L316.851 20L323.706 8.57493C326.036 4.6909 331.665 4.69089 333.996 8.57493L340.851 20L349.518 35.1682C351.003 37.7668 349.127 41 346.134 41C343.021 41 341.164 44.4697 342.891 47.06L344.851 50L357.518 72.1682C359.003 74.7668 357.127 78 354.134 78H350.456C348.915 78 347.996 79.7177 348.851 81L365.526 109.347C366.997 111.848 365.194 115 362.293 115C359.417 115 357.611 118.102 359.031 120.602L371.764 143.038C374.035 147.038 371.146 152 366.546 152H328.851H291.155C286.556 152 283.667 147.038 285.937 143.038L298.671 120.602Z" fill="url(#paint1_linear)"/>
<defs>
<linearGradient id="paint0_linear" x1="11" y1="114" x2="83" y2="114" gradientUnits="userSpaceOnUse">
<stop stop-color="#D91E9D"/>
<stop offset="1" stop-color="#8010A7"/>
</linearGradient>
<linearGradient id="paint1_linear" x1="280.851" y1="76" x2="376.851" y2="76" gradientUnits="userSpaceOnUse">
<stop stop-color="#D91E9D"/>
<stop offset="1" stop-color="#8010A7"/>
</linearGradient>
</defs>
</svg>
