<svg width="20" height="20" viewBox="0 0 20 20" fill="none" xmlns="http://www.w3.org/2000/svg">
<path d="M18.2097 6.31189V6.30538C18.1967 6.17192 18.0535 4.97725 17.474 4.37179C16.8035 3.65564 16.045 3.571 15.6804 3.52869C15.6511 3.52543 15.6218 3.52218 15.599 3.51892L15.5697 3.51567C13.3627 3.35616 10.0359 3.33337 10.0033 3.33337H10.0001H9.99683C9.96427 3.33337 6.63745 3.35616 4.41414 3.51567L4.38485 3.51892C4.36206 3.52218 4.33602 3.52543 4.30672 3.52869C3.94539 3.571 3.19344 3.65564 2.51961 4.39783C1.96623 4.99679 1.80672 6.16541 1.79045 6.29561L1.78719 6.31189C1.78394 6.36723 1.66675 7.69861 1.66675 9.03324V10.28C1.66675 11.6146 1.78394 12.9427 1.79045 12.9981V13.0079C1.80347 13.1413 1.94344 14.3099 2.52287 14.9187C3.15438 15.6088 3.9519 15.6999 4.37834 15.7487C4.4467 15.7552 4.50529 15.7618 4.54435 15.7715L4.58341 15.778C5.8562 15.8985 9.84383 15.9603 10.0131 15.9603H10.0196H10.0261C10.0587 15.9603 13.3855 15.9375 15.5893 15.778L15.6186 15.7748C15.6479 15.7715 15.6772 15.7683 15.713 15.765C16.071 15.726 16.8197 15.6478 17.4838 14.9187C18.0372 14.3197 18.1967 13.1511 18.213 13.0209L18.2162 13.0046C18.2227 12.9493 18.3399 11.6211 18.3399 10.2865V9.03975C18.3334 7.69861 18.2162 6.36723 18.2097 6.31189ZM12.5587 10.0879L8.87703 12.0671C8.77612 12.1224 8.6687 12.1485 8.55802 12.1485C8.43758 12.1485 8.31714 12.1159 8.20972 12.0508C8.00464 11.9271 7.88094 11.7123 7.88094 11.4714V7.48051C7.88094 7.23962 8.00464 7.02152 8.21297 6.89783C8.4213 6.77413 8.67196 6.76762 8.88354 6.88481L12.5652 8.89978C12.7833 9.02022 12.9167 9.24809 12.9135 9.49548C12.9135 9.74288 12.7768 9.97074 12.5587 10.0879Z" fill="black"/>
</svg>
